<mxfile host="app.diagrams.net" modified="2021-07-26T02:59:06.983Z" agent="5.0 (Macintosh; Intel Mac OS X 10_15_7) AppleWebKit/537.36 (KHTML, like Gecko) Chrome/92.0.4515.107 Safari/537.36" etag="GyqXJ9UeyM0ank_9ONvR" version="14.9.2" type="github">
  <diagram id="MvluXv-scr-EsgetfXRq" name="Page-1">
    <mxGraphModel dx="786" dy="427" grid="1" gridSize="10" guides="1" tooltips="1" connect="1" arrows="1" fold="1" page="1" pageScale="1" pageWidth="827" pageHeight="1169" math="0" shadow="0">
      <root>
        <mxCell id="NLJhfG60RyZcXtiWgsZo-0" />
        <mxCell id="NLJhfG60RyZcXtiWgsZo-1" parent="NLJhfG60RyZcXtiWgsZo-0" />
        <mxCell id="E0WtbQZIZp9x6-fbrRyT-0" value="" style="points=[[0,0],[0.25,0],[0.5,0],[0.75,0],[1,0],[1,0.25],[1,0.5],[1,0.75],[1,1],[0.75,1],[0.5,1],[0.25,1],[0,1],[0,0.75],[0,0.5],[0,0.25]];outlineConnect=0;gradientColor=none;html=1;whiteSpace=wrap;fontSize=12;fontStyle=0;shape=mxgraph.aws4.group;grIcon=mxgraph.aws4.group_aws_cloud_alt;strokeColor=#232F3E;fillColor=none;verticalAlign=top;align=left;spacingLeft=30;fontColor=#232F3E;dashed=0;rounded=0;shadow=0;glass=0;sketch=0;" parent="NLJhfG60RyZcXtiWgsZo-1" vertex="1">
          <mxGeometry x="30" y="60" width="680" height="390" as="geometry" />
        </mxCell>
        <mxCell id="fEDllRnmUALVUfmkSNro-1" value="ap-southeast-1" style="points=[[0,0],[0.25,0],[0.5,0],[0.75,0],[1,0],[1,0.25],[1,0.5],[1,0.75],[1,1],[0.75,1],[0.5,1],[0.25,1],[0,1],[0,0.75],[0,0.5],[0,0.25]];outlineConnect=0;gradientColor=none;html=1;whiteSpace=wrap;fontSize=12;fontStyle=0;shape=mxgraph.aws4.group;grIcon=mxgraph.aws4.group_region;strokeColor=#147EBA;fillColor=none;verticalAlign=top;align=left;spacingLeft=30;fontColor=#147EBA;dashed=1;" parent="NLJhfG60RyZcXtiWgsZo-1" vertex="1">
          <mxGeometry x="40" y="90" width="660" height="340" as="geometry" />
        </mxCell>
        <mxCell id="M0LIjQFPR9PKyIt-PRy9-0" value="&lt;span style=&quot;color: rgb(35 , 47 , 62)&quot;&gt;mygentocloud+aws-master (&lt;/span&gt;&lt;span style=&quot;color: rgb(26 , 26 , 26) ; font-family: &amp;#34;amazon ember&amp;#34; , &amp;#34;helvetica neue&amp;#34; , &amp;#34;roboto&amp;#34; , &amp;#34;arial&amp;#34; , sans-serif ; font-size: 14px ; background-color: rgb(255 , 255 , 255)&quot;&gt;916100367559)&lt;br&gt;&lt;/span&gt;&lt;span style=&quot;color: rgb(26 , 26 , 26) ; font-family: &amp;#34;amazon ember&amp;#34; , &amp;#34;helvetica neue&amp;#34; , &amp;#34;roboto&amp;#34; , &amp;#34;arial&amp;#34; , sans-serif ; font-size: 14px ; background-color: rgb(255 , 255 , 255)&quot;&gt;&lt;br&gt;&lt;/span&gt;" style="text;whiteSpace=wrap;html=1;" parent="NLJhfG60RyZcXtiWgsZo-1" vertex="1">
          <mxGeometry x="60" y="60" width="410" height="40" as="geometry" />
        </mxCell>
        <mxCell id="fEDllRnmUALVUfmkSNro-0" value="&lt;font color=&quot;#006633&quot;&gt;VPC 172.31.0.0/16&lt;/font&gt;" style="points=[[0,0],[0.25,0],[0.5,0],[0.75,0],[1,0],[1,0.25],[1,0.5],[1,0.75],[1,1],[0.75,1],[0.5,1],[0.25,1],[0,1],[0,0.75],[0,0.5],[0,0.25]];outlineConnect=0;gradientColor=none;html=1;whiteSpace=wrap;fontSize=12;fontStyle=0;shape=mxgraph.aws4.group;grIcon=mxgraph.aws4.group_vpc;strokeColor=#248814;fillColor=none;verticalAlign=top;align=left;spacingLeft=30;fontColor=#AAB7B8;dashed=0;" parent="NLJhfG60RyZcXtiWgsZo-1" vertex="1">
          <mxGeometry x="50" y="140" width="620" height="270" as="geometry" />
        </mxCell>
        <mxCell id="NxhfEumA4jpC4qflGaaY-0" value="Public subnet" style="points=[[0,0],[0.25,0],[0.5,0],[0.75,0],[1,0],[1,0.25],[1,0.5],[1,0.75],[1,1],[0.75,1],[0.5,1],[0.25,1],[0,1],[0,0.75],[0,0.5],[0,0.25]];outlineConnect=0;gradientColor=none;html=1;whiteSpace=wrap;fontSize=12;fontStyle=0;shape=mxgraph.aws4.group;grIcon=mxgraph.aws4.group_security_group;grStroke=0;strokeColor=#248814;fillColor=#E9F3E6;verticalAlign=top;align=left;spacingLeft=30;fontColor=#248814;dashed=0;" parent="NLJhfG60RyZcXtiWgsZo-1" vertex="1">
          <mxGeometry x="80" y="200" width="160" height="130" as="geometry" />
        </mxCell>
        <mxCell id="NxhfEumA4jpC4qflGaaY-1" value="Public subnet" style="points=[[0,0],[0.25,0],[0.5,0],[0.75,0],[1,0],[1,0.25],[1,0.5],[1,0.75],[1,1],[0.75,1],[0.5,1],[0.25,1],[0,1],[0,0.75],[0,0.5],[0,0.25]];outlineConnect=0;gradientColor=none;html=1;whiteSpace=wrap;fontSize=12;fontStyle=0;shape=mxgraph.aws4.group;grIcon=mxgraph.aws4.group_security_group;grStroke=0;strokeColor=#248814;fillColor=#E9F3E6;verticalAlign=top;align=left;spacingLeft=30;fontColor=#248814;dashed=0;" parent="NLJhfG60RyZcXtiWgsZo-1" vertex="1">
          <mxGeometry x="280" y="200" width="150" height="130" as="geometry" />
        </mxCell>
        <mxCell id="NxhfEumA4jpC4qflGaaY-2" value="Public subnet" style="points=[[0,0],[0.25,0],[0.5,0],[0.75,0],[1,0],[1,0.25],[1,0.5],[1,0.75],[1,1],[0.75,1],[0.5,1],[0.25,1],[0,1],[0,0.75],[0,0.5],[0,0.25]];outlineConnect=0;gradientColor=none;html=1;whiteSpace=wrap;fontSize=12;fontStyle=0;shape=mxgraph.aws4.group;grIcon=mxgraph.aws4.group_security_group;grStroke=0;strokeColor=#248814;fillColor=#E9F3E6;verticalAlign=top;align=left;spacingLeft=30;fontColor=#248814;dashed=0;" parent="NLJhfG60RyZcXtiWgsZo-1" vertex="1">
          <mxGeometry x="480" y="200" width="160" height="130" as="geometry" />
        </mxCell>
        <mxCell id="NxhfEumA4jpC4qflGaaY-4" value="vpc-43844925" style="text;html=1;strokeColor=none;fillColor=none;align=center;verticalAlign=middle;whiteSpace=wrap;rounded=0;" parent="NLJhfG60RyZcXtiWgsZo-1" vertex="1">
          <mxGeometry x="80" y="160" width="110" height="30" as="geometry" />
        </mxCell>
        <mxCell id="NxhfEumA4jpC4qflGaaY-6" value="172.31.16.0/20" style="text;html=1;strokeColor=none;fillColor=none;align=center;verticalAlign=middle;whiteSpace=wrap;rounded=0;" parent="NLJhfG60RyZcXtiWgsZo-1" vertex="1">
          <mxGeometry x="140" y="240" width="40" height="20" as="geometry" />
        </mxCell>
        <mxCell id="NxhfEumA4jpC4qflGaaY-9" value="172.31.32.0/20" style="text;html=1;strokeColor=none;fillColor=none;align=center;verticalAlign=middle;whiteSpace=wrap;rounded=0;" parent="NLJhfG60RyZcXtiWgsZo-1" vertex="1">
          <mxGeometry x="540" y="240" width="40" height="20" as="geometry" />
        </mxCell>
        <mxCell id="NxhfEumA4jpC4qflGaaY-11" value="172.31.32.0/20" style="text;html=1;strokeColor=none;fillColor=none;align=center;verticalAlign=middle;whiteSpace=wrap;rounded=0;" parent="NLJhfG60RyZcXtiWgsZo-1" vertex="1">
          <mxGeometry x="320" y="240" width="40" height="20" as="geometry" />
        </mxCell>
        <mxCell id="NxhfEumA4jpC4qflGaaY-12" value="&lt;span style=&quot;color: rgb(22 , 25 , 31) ; font-family: &amp;#34;amazon ember&amp;#34; , &amp;#34;helvetica neue&amp;#34; , &amp;#34;roboto&amp;#34; , &amp;#34;arial&amp;#34; , sans-serif ; font-size: 14px ; background-color: rgb(241 , 250 , 255)&quot;&gt;ap-southeast-1b&lt;/span&gt;" style="text;html=1;strokeColor=none;fillColor=none;align=center;verticalAlign=middle;whiteSpace=wrap;rounded=0;" parent="NLJhfG60RyZcXtiWgsZo-1" vertex="1">
          <mxGeometry x="100" y="220" width="140" height="20" as="geometry" />
        </mxCell>
        <mxCell id="NxhfEumA4jpC4qflGaaY-13" value="&lt;span style=&quot;color: rgb(22 , 25 , 31) ; font-family: &amp;#34;amazon ember&amp;#34; , &amp;#34;helvetica neue&amp;#34; , &amp;#34;roboto&amp;#34; , &amp;#34;arial&amp;#34; , sans-serif ; font-size: 14px ; background-color: rgb(241 , 250 , 255)&quot;&gt;ap-southeast-1c&lt;/span&gt;" style="text;html=1;strokeColor=none;fillColor=none;align=center;verticalAlign=middle;whiteSpace=wrap;rounded=0;" parent="NLJhfG60RyZcXtiWgsZo-1" vertex="1">
          <mxGeometry x="265" y="220" width="180" height="20" as="geometry" />
        </mxCell>
        <mxCell id="NxhfEumA4jpC4qflGaaY-14" value="&lt;span style=&quot;color: rgb(22 , 25 , 31) ; font-family: &amp;#34;amazon ember&amp;#34; , &amp;#34;helvetica neue&amp;#34; , &amp;#34;roboto&amp;#34; , &amp;#34;arial&amp;#34; , sans-serif ; font-size: 14px ; background-color: rgb(241 , 250 , 255)&quot;&gt;ap-southeast-1a&lt;/span&gt;" style="text;html=1;strokeColor=none;fillColor=none;align=center;verticalAlign=middle;whiteSpace=wrap;rounded=0;" parent="NLJhfG60RyZcXtiWgsZo-1" vertex="1">
          <mxGeometry x="470" y="220" width="180" height="20" as="geometry" />
        </mxCell>
        <mxCell id="NxhfEumA4jpC4qflGaaY-15" value="" style="outlineConnect=0;fontColor=#232F3E;gradientColor=none;fillColor=#5A30B5;strokeColor=none;dashed=0;verticalLabelPosition=bottom;verticalAlign=top;align=center;html=1;fontSize=12;fontStyle=0;aspect=fixed;pointerEvents=1;shape=mxgraph.aws4.internet_gateway;" parent="NLJhfG60RyZcXtiWgsZo-1" vertex="1">
          <mxGeometry x="640" y="120" width="58" height="58" as="geometry" />
        </mxCell>
        <mxCell id="NxhfEumA4jpC4qflGaaY-16" value="rtb (main) rtb-26184940&lt;br&gt;172,31.0.0/16 Local&lt;br&gt;0.0.0.0/0 igw-a8ee03cf" style="rounded=1;whiteSpace=wrap;html=1;strokeColor=#00CC00;shadow=0;fillColor=#B266FF;" parent="NLJhfG60RyZcXtiWgsZo-1" vertex="1">
          <mxGeometry x="80" y="340" width="570" height="60" as="geometry" />
        </mxCell>
        <mxCell id="NxhfEumA4jpC4qflGaaY-21" value="igw-a8ee03cf" style="text;html=1;strokeColor=none;fillColor=none;align=center;verticalAlign=middle;whiteSpace=wrap;rounded=0;shadow=0;" parent="NLJhfG60RyZcXtiWgsZo-1" vertex="1">
          <mxGeometry x="550" y="120" width="110" height="20" as="geometry" />
        </mxCell>
        <mxCell id="fzvVTK81EljAt3U0iRIV-0" value="AWS Cloud (mygentocloud-dev)" style="points=[[0,0],[0.25,0],[0.5,0],[0.75,0],[1,0],[1,0.25],[1,0.5],[1,0.75],[1,1],[0.75,1],[0.5,1],[0.25,1],[0,1],[0,0.75],[0,0.5],[0,0.25]];outlineConnect=0;gradientColor=none;html=1;whiteSpace=wrap;fontSize=12;fontStyle=0;shape=mxgraph.aws4.group;grIcon=mxgraph.aws4.group_aws_cloud_alt;strokeColor=#232F3E;fillColor=none;verticalAlign=top;align=left;spacingLeft=30;fontColor=#232F3E;dashed=0;" parent="NLJhfG60RyZcXtiWgsZo-1" vertex="1">
          <mxGeometry x="30" y="510" width="690" height="540" as="geometry" />
        </mxCell>
        <mxCell id="fzvVTK81EljAt3U0iRIV-2" value="Region (ap-southeast-1)" style="points=[[0,0],[0.25,0],[0.5,0],[0.75,0],[1,0],[1,0.25],[1,0.5],[1,0.75],[1,1],[0.75,1],[0.5,1],[0.25,1],[0,1],[0,0.75],[0,0.5],[0,0.25]];outlineConnect=0;gradientColor=none;html=1;whiteSpace=wrap;fontSize=12;fontStyle=0;shape=mxgraph.aws4.group;grIcon=mxgraph.aws4.group_region;strokeColor=#147EBA;fillColor=none;verticalAlign=top;align=left;spacingLeft=30;fontColor=#147EBA;dashed=1;" parent="NLJhfG60RyZcXtiWgsZo-1" vertex="1">
          <mxGeometry x="38" y="555" width="660" height="485" as="geometry" />
        </mxCell>
        <mxCell id="fzvVTK81EljAt3U0iRIV-4" value="&lt;font color=&quot;#006633&quot;&gt;VPC ( 172.31.0.0/16) vpc-12d81174&lt;/font&gt;" style="points=[[0,0],[0.25,0],[0.5,0],[0.75,0],[1,0],[1,0.25],[1,0.5],[1,0.75],[1,1],[0.75,1],[0.5,1],[0.25,1],[0,1],[0,0.75],[0,0.5],[0,0.25]];outlineConnect=0;gradientColor=none;html=1;whiteSpace=wrap;fontSize=12;fontStyle=0;shape=mxgraph.aws4.group;grIcon=mxgraph.aws4.group_vpc;strokeColor=#248814;fillColor=none;verticalAlign=top;align=left;spacingLeft=30;fontColor=#AAB7B8;dashed=0;" parent="NLJhfG60RyZcXtiWgsZo-1" vertex="1">
          <mxGeometry x="50" y="595" width="640" height="435" as="geometry" />
        </mxCell>
        <mxCell id="fzvVTK81EljAt3U0iRIV-6" value="Public subnet" style="points=[[0,0],[0.25,0],[0.5,0],[0.75,0],[1,0],[1,0.25],[1,0.5],[1,0.75],[1,1],[0.75,1],[0.5,1],[0.25,1],[0,1],[0,0.75],[0,0.5],[0,0.25]];outlineConnect=0;gradientColor=none;html=1;whiteSpace=wrap;fontSize=12;fontStyle=0;shape=mxgraph.aws4.group;grIcon=mxgraph.aws4.group_security_group;grStroke=0;strokeColor=#248814;fillColor=#E9F3E6;verticalAlign=top;align=left;spacingLeft=30;fontColor=#248814;dashed=0;" parent="NLJhfG60RyZcXtiWgsZo-1" vertex="1">
          <mxGeometry x="287.5" y="747.5" width="165" height="180" as="geometry" />
        </mxCell>
        <mxCell id="fzvVTK81EljAt3U0iRIV-7" value="Public subnet" style="points=[[0,0],[0.25,0],[0.5,0],[0.75,0],[1,0],[1,0.25],[1,0.5],[1,0.75],[1,1],[0.75,1],[0.5,1],[0.25,1],[0,1],[0,0.75],[0,0.5],[0,0.25]];outlineConnect=0;gradientColor=none;html=1;whiteSpace=wrap;fontSize=12;fontStyle=0;shape=mxgraph.aws4.group;grIcon=mxgraph.aws4.group_security_group;grStroke=0;strokeColor=#248814;fillColor=#E9F3E6;verticalAlign=top;align=left;spacingLeft=30;fontColor=#248814;dashed=0;" parent="NLJhfG60RyZcXtiWgsZo-1" vertex="1">
          <mxGeometry x="500" y="740" width="150" height="150" as="geometry" />
        </mxCell>
        <mxCell id="fzvVTK81EljAt3U0iRIV-29" value="&lt;font color=&quot;#006600&quot;&gt;ap-southeast-1c&lt;br&gt;172.31.0.0/20&lt;/font&gt;" style="text;html=1;strokeColor=none;fillColor=none;align=center;verticalAlign=middle;whiteSpace=wrap;rounded=0;shadow=0;glass=1;" parent="NLJhfG60RyZcXtiWgsZo-1" vertex="1">
          <mxGeometry x="500" y="772.75" width="130" height="27.5" as="geometry" />
        </mxCell>
        <mxCell id="fzvVTK81EljAt3U0iRIV-31" value="Public subnet" style="points=[[0,0],[0.25,0],[0.5,0],[0.75,0],[1,0],[1,0.25],[1,0.5],[1,0.75],[1,1],[0.75,1],[0.5,1],[0.25,1],[0,1],[0,0.75],[0,0.5],[0,0.25]];outlineConnect=0;gradientColor=none;html=1;whiteSpace=wrap;fontSize=12;fontStyle=0;shape=mxgraph.aws4.group;grIcon=mxgraph.aws4.group_security_group;grStroke=0;strokeColor=#248814;fillColor=#E9F3E6;verticalAlign=top;align=left;spacingLeft=30;fontColor=#248814;dashed=0;" parent="NLJhfG60RyZcXtiWgsZo-1" vertex="1">
          <mxGeometry x="65" y="747.5" width="190" height="200" as="geometry" />
        </mxCell>
        <mxCell id="fzvVTK81EljAt3U0iRIV-38" value="&lt;font color=&quot;#006600&quot;&gt;ap-southeast-1b&lt;br&gt;172.31.32.0/20&lt;/font&gt;" style="text;html=1;strokeColor=none;fillColor=none;align=center;verticalAlign=middle;whiteSpace=wrap;rounded=0;shadow=0;glass=1;" parent="NLJhfG60RyZcXtiWgsZo-1" vertex="1">
          <mxGeometry x="280" y="769" width="130" height="27.5" as="geometry" />
        </mxCell>
        <mxCell id="QqocjXUcLbP7NDkR02Cr-1" value="Secu-group (sg-c4b43988)" style="rounded=1;whiteSpace=wrap;html=1;shadow=0;glass=0;fillColor=#FFFFFF;strokeColor=#991B08;" parent="NLJhfG60RyZcXtiWgsZo-1" vertex="1">
          <mxGeometry x="80" y="810" width="160" height="30" as="geometry" />
        </mxCell>
        <mxCell id="fzvVTK81EljAt3U0iRIV-34" value="" style="points=[[0,0,0],[0.25,0,0],[0.5,0,0],[0.75,0,0],[1,0,0],[0,1,0],[0.25,1,0],[0.5,1,0],[0.75,1,0],[1,1,0],[0,0.25,0],[0,0.5,0],[0,0.75,0],[1,0.25,0],[1,0.5,0],[1,0.75,0]];outlineConnect=0;fontColor=#232F3E;gradientColor=#F78E04;gradientDirection=north;fillColor=#D05C17;strokeColor=#ffffff;dashed=0;verticalLabelPosition=bottom;verticalAlign=top;align=center;html=1;fontSize=12;fontStyle=0;aspect=fixed;shape=mxgraph.aws4.resourceIcon;resIcon=mxgraph.aws4.ec2;shadow=0;glass=1;" parent="NLJhfG60RyZcXtiWgsZo-1" vertex="1">
          <mxGeometry x="131" y="832" width="38" height="38" as="geometry" />
        </mxCell>
        <mxCell id="QqocjXUcLbP7NDkR02Cr-2" value="Secu-group (sg-c4b43988)" style="rounded=1;whiteSpace=wrap;html=1;shadow=0;glass=0;fillColor=#FFFFFF;strokeColor=#991B08;" parent="NLJhfG60RyZcXtiWgsZo-1" vertex="1">
          <mxGeometry x="290" y="815" width="160" height="30" as="geometry" />
        </mxCell>
        <mxCell id="fzvVTK81EljAt3U0iRIV-33" value="" style="points=[[0,0,0],[0.25,0,0],[0.5,0,0],[0.75,0,0],[1,0,0],[0,1,0],[0.25,1,0],[0.5,1,0],[0.75,1,0],[1,1,0],[0,0.25,0],[0,0.5,0],[0,0.75,0],[1,0.25,0],[1,0.5,0],[1,0.75,0]];outlineConnect=0;fontColor=#232F3E;gradientColor=#F78E04;gradientDirection=north;fillColor=#D05C17;strokeColor=#ffffff;dashed=0;verticalLabelPosition=bottom;verticalAlign=top;align=center;html=1;fontSize=12;fontStyle=0;aspect=fixed;shape=mxgraph.aws4.resourceIcon;resIcon=mxgraph.aws4.ec2;shadow=0;glass=1;" parent="NLJhfG60RyZcXtiWgsZo-1" vertex="1">
          <mxGeometry x="341" y="840" width="38" height="38" as="geometry" />
        </mxCell>
        <mxCell id="QqocjXUcLbP7NDkR02Cr-5" value="&lt;div&gt;&lt;span&gt;&amp;nbsp; &amp;nbsp; &amp;nbsp; &amp;nbsp; Network ACLs (acl-b799ead1)&lt;/span&gt;&lt;/div&gt;&lt;div&gt;&lt;span&gt;&lt;br&gt;&lt;/span&gt;&lt;/div&gt;&lt;div&gt;&lt;span&gt;Inbound rules&amp;nbsp; &amp;nbsp; &amp;nbsp; &amp;nbsp; &amp;nbsp; 100&amp;nbsp; &amp;nbsp; &amp;nbsp; &amp;nbsp; &amp;nbsp; &amp;nbsp; &amp;nbsp; All traffic&amp;nbsp; &amp;nbsp; &amp;nbsp; &amp;nbsp; &amp;nbsp; &amp;nbsp; &amp;nbsp;All&amp;nbsp; &amp;nbsp; &amp;nbsp; &amp;nbsp; &amp;nbsp; &amp;nbsp; &amp;nbsp; &amp;nbsp; All&amp;nbsp; &amp;nbsp; &amp;nbsp; &amp;nbsp; &amp;nbsp; &amp;nbsp; &amp;nbsp; 0.0.0.0/0&amp;nbsp; &amp;nbsp; &amp;nbsp; &amp;nbsp; &amp;nbsp; &amp;nbsp; &amp;nbsp;Allow&lt;/span&gt;&lt;/div&gt;&lt;div&gt;&amp;nbsp; &amp;nbsp; &amp;nbsp; &amp;nbsp; &amp;nbsp; &amp;nbsp; &amp;nbsp; &amp;nbsp; &amp;nbsp; &amp;nbsp; &amp;nbsp; &amp;nbsp; &amp;nbsp; &amp;nbsp; &amp;nbsp; &amp;nbsp; &amp;nbsp;&lt;font color=&quot;#e8290c&quot;&gt;*&amp;nbsp; &amp;nbsp; &amp;nbsp; &amp;nbsp; &amp;nbsp; &amp;nbsp; &amp;nbsp; &amp;nbsp; &amp;nbsp; All traffic&amp;nbsp; &amp;nbsp; &amp;nbsp; &amp;nbsp; &amp;nbsp; &amp;nbsp; All&amp;nbsp; &amp;nbsp; &amp;nbsp; &amp;nbsp; &amp;nbsp; &amp;nbsp; &amp;nbsp; &amp;nbsp; &amp;nbsp;All&amp;nbsp; &amp;nbsp; &amp;nbsp; &amp;nbsp; &amp;nbsp; &amp;nbsp; &amp;nbsp; 0.0.0.0/0&amp;nbsp; &amp;nbsp; &amp;nbsp; &amp;nbsp; &amp;nbsp; &amp;nbsp; &amp;nbsp;Deny&lt;/font&gt;&lt;/div&gt;&lt;div&gt;&lt;span&gt;&lt;br&gt;&lt;/span&gt;&lt;/div&gt;&lt;div&gt;&lt;span&gt;&amp;nbsp;out&lt;/span&gt;&lt;span&gt;bound rules&amp;nbsp; &amp;nbsp; &amp;nbsp; &amp;nbsp; &amp;nbsp; 100&amp;nbsp; &amp;nbsp; &amp;nbsp; &amp;nbsp; &amp;nbsp; &amp;nbsp; &amp;nbsp; All traffic&amp;nbsp; &amp;nbsp; &amp;nbsp; &amp;nbsp; &amp;nbsp; &amp;nbsp; &amp;nbsp;All&amp;nbsp; &amp;nbsp; &amp;nbsp; &amp;nbsp; &amp;nbsp; &amp;nbsp; &amp;nbsp; &amp;nbsp; All&amp;nbsp; &amp;nbsp; &amp;nbsp; &amp;nbsp; &amp;nbsp; &amp;nbsp; &amp;nbsp; 0.0.0.0/0&amp;nbsp; &amp;nbsp; &amp;nbsp; &amp;nbsp; &amp;nbsp; &amp;nbsp; &amp;nbsp;Allow&lt;/span&gt;&lt;/div&gt;&lt;div&gt;&amp;nbsp; &amp;nbsp; &amp;nbsp; &amp;nbsp; &amp;nbsp; &amp;nbsp; &amp;nbsp; &amp;nbsp; &amp;nbsp; &amp;nbsp; &amp;nbsp; &amp;nbsp; &amp;nbsp; &amp;nbsp; &amp;nbsp; &amp;nbsp; &amp;nbsp;&lt;font color=&quot;#e8290c&quot;&gt;*&amp;nbsp; &amp;nbsp; &amp;nbsp; &amp;nbsp; &amp;nbsp; &amp;nbsp; &amp;nbsp; &amp;nbsp; &amp;nbsp; All traffic&amp;nbsp; &amp;nbsp; &amp;nbsp; &amp;nbsp; &amp;nbsp; &amp;nbsp; All&amp;nbsp; &amp;nbsp; &amp;nbsp; &amp;nbsp; &amp;nbsp; &amp;nbsp; &amp;nbsp; &amp;nbsp; &amp;nbsp;All&amp;nbsp; &amp;nbsp; &amp;nbsp; &amp;nbsp; &amp;nbsp; &amp;nbsp; &amp;nbsp; 0.0.0.0/0&amp;nbsp; &amp;nbsp; &amp;nbsp; &amp;nbsp; &amp;nbsp; &amp;nbsp; &amp;nbsp;Deny&lt;/font&gt;&lt;/div&gt;&lt;div&gt;&lt;br&gt;&lt;/div&gt;&lt;div&gt;&lt;span&gt;&amp;nbsp; &amp;nbsp; &amp;nbsp; &amp;nbsp; &amp;nbsp;&amp;nbsp;&lt;/span&gt;&lt;span&gt;&amp;nbsp;&amp;nbsp;&lt;/span&gt;&lt;/div&gt;" style="rounded=1;whiteSpace=wrap;html=1;shadow=0;glass=0;strokeColor=#991B08;fillColor=#FFFFFF;gradientColor=none;align=left;strokeWidth=1;verticalAlign=top;" parent="NLJhfG60RyZcXtiWgsZo-1" vertex="1">
          <mxGeometry x="75" y="620" width="600" height="110" as="geometry" />
        </mxCell>
        <mxCell id="QqocjXUcLbP7NDkR02Cr-9" value="&lt;font color=&quot;#006600&quot;&gt;ap-southeast-1a&lt;br&gt;172.31.16.0/20&lt;/font&gt;" style="text;html=1;strokeColor=none;fillColor=none;align=center;verticalAlign=middle;whiteSpace=wrap;rounded=0;shadow=0;glass=1;" parent="NLJhfG60RyZcXtiWgsZo-1" vertex="1">
          <mxGeometry x="95" y="780" width="130" height="27.5" as="geometry" />
        </mxCell>
        <mxCell id="QqocjXUcLbP7NDkR02Cr-10" value="" style="outlineConnect=0;fontColor=#232F3E;gradientColor=none;fillColor=#5A30B5;strokeColor=none;dashed=0;verticalLabelPosition=bottom;verticalAlign=top;align=center;html=1;fontSize=12;fontStyle=0;aspect=fixed;pointerEvents=1;shape=mxgraph.aws4.internet_gateway;rounded=1;shadow=0;glass=0;" parent="NLJhfG60RyZcXtiWgsZo-1" vertex="1">
          <mxGeometry x="660" y="570" width="50" height="50" as="geometry" />
        </mxCell>
        <mxCell id="fzvVTK81EljAt3U0iRIV-10" value="" style="outlineConnect=0;fontColor=#232F3E;gradientColor=none;fillColor=#5A30B5;strokeColor=none;dashed=0;verticalLabelPosition=bottom;verticalAlign=top;align=center;html=1;fontSize=12;fontStyle=0;aspect=fixed;pointerEvents=1;shape=mxgraph.aws4.network_access_control_list;" parent="NLJhfG60RyZcXtiWgsZo-1" vertex="1">
          <mxGeometry x="50" y="620" width="40" height="40" as="geometry" />
        </mxCell>
        <mxCell id="QqocjXUcLbP7NDkR02Cr-11" value="&lt;font color=&quot;#16191f&quot; face=&quot;amazon ember, helvetica neue, roboto, arial, sans-serif&quot;&gt;&lt;span style=&quot;background-color: rgb(255 , 255 , 255)&quot;&gt;&lt;font style=&quot;font-size: 11px&quot;&gt;public-instance-1&lt;br&gt;172.31.19.223/20&lt;br&gt;13.250.113.105&lt;/font&gt;&lt;br&gt;&lt;/span&gt;&lt;/font&gt;" style="text;html=1;strokeColor=none;fillColor=none;align=center;verticalAlign=middle;whiteSpace=wrap;rounded=0;shadow=0;glass=0;" parent="NLJhfG60RyZcXtiWgsZo-1" vertex="1">
          <mxGeometry x="95" y="890" width="125" height="20" as="geometry" />
        </mxCell>
        <mxCell id="QqocjXUcLbP7NDkR02Cr-13" value="&lt;span style=&quot;color: rgb(22 , 25 , 31) ; font-family: &amp;#34;amazon ember&amp;#34; , &amp;#34;helvetica neue&amp;#34; , &amp;#34;roboto&amp;#34; , &amp;#34;arial&amp;#34; , sans-serif ; font-size: 14px ; background-color: rgb(255 , 255 , 255)&quot;&gt;igw-0333da64&lt;/span&gt;" style="text;html=1;strokeColor=none;fillColor=none;align=center;verticalAlign=middle;whiteSpace=wrap;rounded=0;shadow=0;glass=0;" parent="NLJhfG60RyZcXtiWgsZo-1" vertex="1">
          <mxGeometry x="555" y="570" width="125" height="20" as="geometry" />
        </mxCell>
        <mxCell id="QqocjXUcLbP7NDkR02Cr-15" value="&lt;div&gt;&lt;span&gt;&amp;nbsp; &amp;nbsp;rtb-d77e23b1 (main route table)&lt;/span&gt;&lt;/div&gt;&lt;div&gt;&lt;span&gt;&lt;br&gt;&lt;/span&gt;&lt;/div&gt;&lt;div&gt;&lt;span&gt;Destination&amp;nbsp; &amp;nbsp; &amp;nbsp; &amp;nbsp; &amp;nbsp; &amp;nbsp;Target&amp;nbsp; &amp;nbsp; &amp;nbsp; &amp;nbsp; &amp;nbsp; &amp;nbsp; &amp;nbsp; &amp;nbsp; &amp;nbsp; &amp;nbsp; &amp;nbsp; &amp;nbsp; &amp;nbsp; &amp;nbsp; &amp;nbsp; &amp;nbsp; &amp;nbsp; &amp;nbsp; &amp;nbsp; &amp;nbsp;Status&amp;nbsp; &amp;nbsp; &amp;nbsp; &amp;nbsp; &amp;nbsp; &amp;nbsp; &amp;nbsp;Propagated&lt;/span&gt;&lt;/div&gt;&lt;div&gt;&lt;span&gt;&amp;nbsp;172.31.0.0/16&amp;nbsp; &amp;nbsp; &amp;nbsp; local&amp;nbsp; &amp;nbsp; &amp;nbsp; &amp;nbsp; &amp;nbsp; &amp;nbsp; &amp;nbsp; &amp;nbsp; &amp;nbsp; &amp;nbsp; &amp;nbsp; &amp;nbsp; &amp;nbsp; &amp;nbsp; &amp;nbsp; &amp;nbsp; &amp;nbsp; &amp;nbsp; &amp;nbsp; &amp;nbsp; &amp;nbsp;Active&amp;nbsp; &amp;nbsp; &amp;nbsp; &amp;nbsp; &amp;nbsp; &amp;nbsp; &amp;nbsp; No&lt;/span&gt;&lt;/div&gt;&lt;div&gt;&lt;span&gt;&amp;nbsp; 0.0.0.0/0&amp;nbsp; &amp;nbsp; &amp;nbsp; &amp;nbsp; &amp;nbsp; &amp;nbsp; &amp;nbsp; igw-0333da64&amp;nbsp; &amp;nbsp; &amp;nbsp; &amp;nbsp; &amp;nbsp; &amp;nbsp; &amp;nbsp; &amp;nbsp; &amp;nbsp; &amp;nbsp; &amp;nbsp; &amp;nbsp; &amp;nbsp;Active&amp;nbsp; &amp;nbsp; &amp;nbsp; &amp;nbsp; &amp;nbsp; &amp;nbsp; &amp;nbsp; No&lt;/span&gt;&lt;/div&gt;&lt;div&gt;&amp;nbsp; &amp;nbsp; &amp;nbsp; &amp;nbsp; &amp;nbsp; &amp;nbsp; &amp;nbsp; &amp;nbsp; &amp;nbsp; &amp;nbsp; &amp;nbsp; &amp;nbsp; &amp;nbsp; &amp;nbsp; &amp;nbsp; &amp;nbsp;&lt;/div&gt;&lt;div&gt;&lt;br&gt;&lt;/div&gt;&lt;div&gt;&lt;span&gt;&amp;nbsp; &amp;nbsp; &amp;nbsp; &amp;nbsp; &amp;nbsp;&amp;nbsp;&lt;/span&gt;&lt;span&gt;&amp;nbsp;&amp;nbsp;&lt;/span&gt;&lt;/div&gt;" style="rounded=1;whiteSpace=wrap;html=1;shadow=0;glass=0;strokeColor=#991B08;gradientColor=none;align=left;strokeWidth=1;verticalAlign=top;fillColor=#B266FF;" parent="NLJhfG60RyZcXtiWgsZo-1" vertex="1">
          <mxGeometry x="60" y="940" width="605" height="82.5" as="geometry" />
        </mxCell>
        <mxCell id="QqocjXUcLbP7NDkR02Cr-19" value="&lt;font color=&quot;#16191f&quot; face=&quot;amazon ember, helvetica neue, roboto, arial, sans-serif&quot;&gt;&lt;span style=&quot;background-color: rgb(255 , 255 , 255)&quot;&gt;&lt;font style=&quot;font-size: 11px&quot;&gt;public-instance-2&lt;br&gt;172.31.34.68/20&lt;br&gt;13.229.55.250&lt;/font&gt;&lt;br&gt;&lt;/span&gt;&lt;/font&gt;" style="text;html=1;strokeColor=none;fillColor=none;align=center;verticalAlign=middle;whiteSpace=wrap;rounded=0;shadow=0;glass=0;" parent="NLJhfG60RyZcXtiWgsZo-1" vertex="1">
          <mxGeometry x="292.5" y="900" width="125" height="20" as="geometry" />
        </mxCell>
        <mxCell id="QqocjXUcLbP7NDkR02Cr-20" value="" style="ellipse;shape=cloud;whiteSpace=wrap;html=1;rounded=1;shadow=0;glass=0;strokeColor=#991B08;strokeWidth=1;gradientColor=none;verticalAlign=top;fillColor=#FFFFFF;" parent="NLJhfG60RyZcXtiWgsZo-1" vertex="1">
          <mxGeometry x="720" y="450" width="90" height="80" as="geometry" />
        </mxCell>
        <mxCell id="QqocjXUcLbP7NDkR02Cr-23" value="" style="endArrow=classic;startArrow=classic;html=1;entryX=0.344;entryY=0.938;entryDx=0;entryDy=0;entryPerimeter=0;" parent="NLJhfG60RyZcXtiWgsZo-1" source="QqocjXUcLbP7NDkR02Cr-10" target="QqocjXUcLbP7NDkR02Cr-20" edge="1">
          <mxGeometry width="50" height="50" relative="1" as="geometry">
            <mxPoint x="720" y="826" as="sourcePoint" />
            <mxPoint x="770" y="776" as="targetPoint" />
          </mxGeometry>
        </mxCell>
      </root>
    </mxGraphModel>
  </diagram>
</mxfile>
